<svg width="15" height="22" viewBox="0 0 15 22" fill="none" xmlns="http://www.w3.org/2000/svg">
<path d="M8.5 1C8.5 0.447715 8.05228 1.68987e-08 7.5 0C6.94772 -1.68987e-08 6.5 0.447715 6.5 1L8.5 1ZM6.79289 21.7071C7.18342 22.0976 7.81658 22.0976 8.20711 21.7071L14.5711 15.3431C14.9616 14.9526 14.9616 14.3195 14.5711 13.9289C14.1805 13.5384 13.5474 13.5384 13.1569 13.9289L7.5 19.5858L1.84315 13.9289C1.45262 13.5384 0.819456 13.5384 0.428932 13.9289C0.0384074 14.3195 0.0384074 14.9526 0.428932 15.3431L6.79289 21.7071ZM6.5 1L6.5 21L8.5 21L8.5 1L6.5 1Z" fill="#06A9C0"/>
</svg>
